<?xml version="1.0" encoding="UTF-8" standalone="no"?>
<!-- Created with Inkscape (http://www.inkscape.org/) -->

<svg
   width="118.28915mm"
   height="117.39301mm"
   viewBox="0 0 118.28915 117.39301"
   version="1.1"
   id="svg1"
   xml:space="preserve"
   xmlns:inkscape="http://www.inkscape.org/namespaces/inkscape"
   xmlns:sodipodi="http://sodipodi.sourceforge.net/DTD/sodipodi-0.dtd"
   xmlns="http://www.w3.org/2000/svg"
   xmlns:svg="http://www.w3.org/2000/svg"><sodipodi:namedview
     id="namedview1"
     pagecolor="#ffffff"
     bordercolor="#000000"
     borderopacity="0.25"
     inkscape:showpageshadow="2"
     inkscape:pageopacity="0.0"
     inkscape:pagecheckerboard="0"
     inkscape:deskcolor="#d1d1d1"
     inkscape:document-units="mm"><inkscape:page
       x="-1.297838e-22"
       y="0"
       width="118.28915"
       height="117.39301"
       id="page2"
       margin="0"
       bleed="0" /></sodipodi:namedview><defs
     id="defs1" /><g
     inkscape:label="Layer 1"
     inkscape:groupmode="layer"
     id="layer1"
     transform="translate(-36.693263,-251.66051)"><path
       style="fill:#cb9f58;fill-opacity:1"
       d="m 90.207133,368.82866 c -0.29104,-0.11516 -0.67194,-0.15591 -0.84643,-0.0906 -0.4409,0.16512 -6.88152,-1.13858 -9.60461,-1.94415 -5.40456,-1.59882 -9.21311,-3.23158 -13.329408,-5.71443 -2.40022,-1.44775 -6.701424,-4.3172 -7.043512,-4.69892 -0.07276,-0.0812 -1.1075,-0.95344 -2.29942,-1.93833 -4.45236,-3.67902 -9.255457,-9.37241 -12.319903,-14.60351 -1.120032,-1.91193 -4.430678,-8.93834 -4.430678,-9.40353 0,-0.14352 -0.112625,-0.46769 -0.250279,-0.72037 -0.617613,-1.13374 -2.191387,-7.06087 -2.791574,-10.5136 -0.902906,-5.1942 -0.768848,-13.55568 0.303304,-18.91771 1.441341,-7.20841 2.477323,-10.61575 4.384262,-14.41979 3.597226,-7.17591 7.383705,-12.62409 11.96629,-17.21774 2.793052,-2.79979 4.086164,-3.86801 7.665079,-6.332 5.043497,-3.47232 11.367889,-6.58424 16.664729,-8.19987 9.33972,-2.84879 20.87243,-3.2421 30.717567,-1.0476 2.82302,0.62925 7.11335,1.92348 8.73125,2.63388 6.97271,3.06161 9.43699,4.4275 13.8186,7.65929 3.25542,2.40112 8.12058,7.17051 10.67808,10.46786 2.80989,3.62275 6.59599,9.45905 7.80531,12.03192 2.66181,5.66311 4.17861,12.4441 4.84438,21.65716 0.71459,9.88866 -2.02329,21.80431 -7.06195,30.7346 -1.31867,2.33717 -4.27164,6.86637 -5.00803,7.68124 -0.25888,0.28646 -0.81338,0.93756 -1.23221,1.44689 -2.601,3.16293 -7.65126,7.93387 -11.09113,10.4777 -4.56003,3.37219 -10.12824,6.21518 -16.2386,8.291 -6.25191,2.12392 -11.31467,2.92576 -18.342577,2.9051 -2.83765,-0.008 -5.3975,-0.10938 -5.68854,-0.22453 z m 4.02913,-1.77078 0.58955,-0.15803 0.009,-22.35775 c 0.005,-12.29676 0.0739,-22.4634 0.15367,-22.59252 0.0798,-0.12913 0.55479,-0.23478 1.05553,-0.23478 0.67529,0 0.92086,0.11958 0.95082,0.46302 0.0222,0.25466 0.0559,10.4285 0.0748,22.60852 0.0189,12.18003 0.0999,22.21095 0.17989,22.29095 0.15205,0.15205 2.763257,-0.14079 7.245497,-0.81255 9.97135,-1.49444 18.54732,-5.28675 26.72292,-11.81694 8.34324,-6.66409 14.06419,-14.36381 17.73267,-23.86604 2.18215,-5.65228 3.26104,-10.55268 3.70824,-16.84312 l 0.18144,-2.55221 -0.84758,-0.18616 c -0.46617,-0.10239 -10.54019,-0.19111 -22.3867,-0.19715 l -21.53911,-0.011 v -1.11127 -1.11127 l 11.44323,-0.12735 c 6.29377,-0.07 16.14619,-0.0577 21.89427,0.0274 5.74807,0.0851 10.62215,0.0765 10.83129,-0.019 0.46771,-0.21372 0.42941,-1.9292 -0.14388,-6.44495 -0.55917,-4.40451 -0.98824,-6.31377 -2.37892,-10.58568 -1.74085,-5.34758 -4.16246,-9.6732 -8.79629,-15.71244 -2.24529,-2.92627 -7.53174,-8.22396 -10.14063,-10.16218 -8.56746,-6.36503 -18.38745,-10.26887 -28.4539,-11.31155 -1.56978,-0.1626 -3.375187,-0.25614 -4.012027,-0.20786 l -1.1579,0.0878 0.0483,20.68845 c 0.0265,11.37865 -0.0312,21.112 -0.12832,21.62969 -0.16639,0.88696 -0.23591,0.94123 -1.20546,0.94123 h -1.02889 l -0.004,-21.10052 c -0.002,-11.60528 -0.0754,-21.36841 -0.16316,-21.69583 -0.14859,-0.5545 -0.30475,-0.59531 -2.27753,-0.59531 -4.8785,0 -12.56352,1.66177 -18.32549,3.96261 -6.23503,2.48974 -14.377786,7.85809 -18.867476,12.43893 -1.799281,1.83581 -5.503718,6.43092 -7.001303,8.68466 -1.893602,2.84972 -4.664067,8.2368 -5.895368,11.46335 -1.110672,2.91046 -2.354401,7.54388 -2.759872,10.2817 -0.384693,2.59751 -0.742991,7.18639 -0.593934,7.60677 0.09255,0.26102 4.795542,0.33073 22.313964,0.33073 h 22.196689 v 1.05833 1.05833 H 61.235256 39.010255 l -0.02665,0.59532 c -0.01466,0.32742 -0.04157,0.89297 -0.05981,1.25677 -0.134879,2.6905 0.943599,9.30483 2.218467,13.6059 0.851654,2.87325 3.028679,8.17753 4.297675,10.47118 0.774892,1.40059 3.259091,5.40747 3.690839,5.95313 0.115141,0.14552 0.984007,1.27661 1.930812,2.51354 3.956279,5.16857 11.651007,11.5648 18.111164,15.05487 3.77195,2.03778 10.10803,4.42837 13.09688,4.94144 0.58208,0.0999 1.26041,0.28589 1.50739,0.41327 0.38967,0.20097 5.70037,1.06131 8.41448,1.36316 0.50933,0.0566 1.04511,0.12042 1.19063,0.14172 0.14552,0.0213 0.52988,-0.0324 0.85413,-0.1193 z m 5.22742,-3.19396 c 0.0581,-0.55352 0.11253,-1.13827 0.12091,-1.29945 0.008,-0.16117 0.745487,-0.36936 1.638007,-0.46265 3.30571,-0.34551 9.53389,-2.79873 12.97962,-5.11253 2.21149,-1.48501 4.90236,-3.97385 6.16625,-5.70327 0.60988,-0.83453 1.57382,-1.88681 2.14209,-2.33841 0.89028,-0.70751 1.17592,-0.79827 2.06492,-0.65611 1.17278,0.18753 2.52121,1.18988 2.99211,2.22415 0.34434,0.7563 0.45949,3.53789 0.1589,3.83848 -0.1545,0.15449 -0.92499,-0.92839 -2.63433,-3.70237 -0.27825,-0.45156 -0.42596,-0.35714 -1.71028,1.09325 -4.33132,4.8914 -8.48532,8.04145 -13.43582,10.1886 -2.3817,1.03299 -6.22392,2.16597 -8.49414,2.5047 -0.65484,0.0977 -1.39386,0.23488 -1.642267,0.30483 -0.38092,0.10727 -0.4351,-0.0304 -0.34597,-0.87922 z m -18.64926,-1.66736 c -0.3638,-0.12227 -1.55443,-0.48451 -2.64583,-0.805 -1.09141,-0.32048 -2.07273,-0.66253 -2.18071,-0.76012 -0.10798,-0.0976 0.44377,-0.80956 1.22611,-1.58218 l 1.42243,-1.40476 1.68431,1.69549 c 0.92637,0.93251 1.97296,2.01615 2.32575,2.40807 l 0.64143,0.71258 -0.90601,-0.0209 c -0.49831,-0.0115 -1.20368,-0.12092 -1.56748,-0.24319 z m 3.70417,0.0307 c 0,-0.12835 0.94284,-1.24855 2.0952,-2.48935 l 2.09521,-2.25599 1.87354,1.85507 c 1.28476,1.27209 1.87355,2.05439 1.87355,2.48934 v 0.63428 h -3.96875 c -2.18281,0 -3.96875,-0.10501 -3.96875,-0.23335 z m 20.720507,-6.65676 -0.84303,-1.86025 0.81643,-1.31336 c 0.44904,-0.72235 0.89878,-1.31337 0.99942,-1.31337 0.10064,0 0.51183,0.60421 0.91376,1.34268 l 0.73077,1.34267 -0.68872,1.53468 c -0.3788,0.84408 -0.68872,1.66862 -0.68872,1.83233 0,0.73413 -0.46233,0.15045 -1.23991,-1.56538 z m -39.41465,0.19776 c -1.175252,-0.61207 -2.472696,-1.3856 -2.883208,-1.71894 l -0.746387,-0.60608 0.679931,-0.67993 0.67993,-0.67993 2.314025,2.28812 c 1.272712,1.25847 2.264192,2.33796 2.203282,2.39887 -0.0609,0.0609 -1.072321,-0.39004 -2.247573,-1.00211 z m 3.083723,0.88468 c 0,-0.26733 4.42085,-4.51108 4.69933,-4.51108 0.40312,0 1.40187,1.21782 1.19007,1.45111 -0.11047,0.12167 -0.0805,0.15316 0.0666,0.07 0.32556,-0.18408 0.67591,0.092 2.37191,1.8691 l 1.31648,1.37945 -4.82221,-0.0376 c -2.65222,-0.0207 -4.82222,-0.12011 -4.82222,-0.22097 z m 10.31875,0.0497 c 0,-0.0681 0.97311,-1.11527 2.16247,-2.32709 1.64295,-1.67398 2.2627,-2.14965 2.57969,-1.97997 0.47642,0.25502 4.08171,3.87503 4.19798,4.21511 0.0421,0.12322 -1.95217,0.22217 -4.43177,0.21989 -2.47961,-0.002 -4.50837,-0.0599 -4.50837,-0.12794 z m 10.05417,-0.097 c 0,-0.10562 0.26789,-0.41052 0.59531,-0.67755 0.32742,-0.26704 1.03222,-0.9798 1.56621,-1.5839 0.53399,-0.60411 1.01024,-1.05949 1.05833,-1.01196 0.0481,0.0475 0.0476,0.86809 -0.001,1.82348 l -0.0885,1.73706 -1.56518,-0.0476 c -0.86085,-0.0262 -1.56518,-0.13397 -1.56518,-0.23958 z m 10.847917,-2.30301 c 0,-0.12127 0.0816,-0.30208 0.18132,-0.40181 0.0997,-0.0997 0.32505,-0.56606 0.50071,-1.03629 1.51825,-4.06431 3.6044,-8.26191 5.02722,-10.11537 0.39782,-0.51823 0.42179,-0.51019 1.15971,0.38921 0.41442,0.50511 1.09227,1.57667 1.50633,2.38125 0.41406,0.80458 0.88628,1.64147 1.0494,1.85975 0.73484,0.9834 2.4198,6.76453 2.07272,7.11161 -0.32172,0.32172 -4.88283,-5.56871 -4.88283,-6.30592 0,-0.63421 -0.5569,-0.20073 -1.08938,0.84795 -0.31403,0.61847 -1.55129,2.10675 -2.74948,3.30729 -1.99238,1.99631 -2.77572,2.5501 -2.77572,1.96233 z m 5.964,-7.96399 c -0.21783,-0.35246 -0.93692,-0.37234 -0.93692,-0.0259 0,0.14095 0.17859,0.18775 0.39687,0.10398 0.22476,-0.0862 0.39688,-0.006 0.39688,0.1847 0,0.18534 0.0714,0.26553 0.15878,0.1782 0.0873,-0.0873 0.0803,-0.28577 -0.0156,-0.44097 z m -46.088135,4.82621 c -0.312908,-0.0612 -1.265408,-0.74582 -2.116667,-1.52145 l -1.547744,-1.41026 0.926042,-0.81953 c 0.509323,-0.45075 0.994219,-0.82144 1.077547,-0.82377 0.170989,-0.005 4.743287,4.47494 4.743287,4.64723 0,0.13554 -2.294593,0.0818 -3.082465,-0.0722 z m 3.876215,0.0107 c 0,-0.28172 4.320393,-4.5899 4.602913,-4.5899 0.1427,0 1.28608,1.07156 2.54084,2.38125 l 2.28138,2.38125 h -4.71257 c -2.591908,0 -4.712563,-0.0777 -4.712563,-0.1726 z m 10.059273,-0.0258 c 0.003,-0.10914 1.04699,-1.23626 2.3204,-2.50472 l 2.31529,-2.30628 2.4421,2.31974 c 1.34316,1.27586 2.4421,2.40298 2.4421,2.50472 0,0.10174 -2.14312,0.18498 -4.7625,0.18498 -2.61937,0 -4.7602,-0.0893 -4.75739,-0.19844 z m 10.31364,-0.0472 c 0,-0.13512 0.1674,-0.40302 0.372,-0.59531 2.02899,-1.90702 3.33217,-3.24584 3.33217,-3.42331 0,-0.11825 0.23322,-0.33981 0.51826,-0.49236 0.44611,-0.23875 0.75919,-0.0316 2.24896,1.48773 1.31115,1.33721 1.7307,1.94738 1.7307,2.51702 v 0.75192 h -4.10104 c -2.34733,0 -4.10105,-0.10506 -4.10105,-0.24569 z m 45.111457,-1.38599 c -0.70653,-0.39077 -1.71979,-1.32017 -1.71979,-1.57746 0,-0.29654 1.71038,-0.57566 2.32743,-0.37982 0.73233,0.23243 2.22049,1.70651 2.03151,2.01228 -0.21262,0.34402 -1.98445,0.30709 -2.63915,-0.055 z m -12.10468,-0.78038 c -0.93158,-0.35577 -0.91369,-0.50151 0.15047,-1.22596 0.96468,-0.65674 1.95977,-0.72474 3.33439,-0.22788 l 0.90518,0.32718 -0.96047,0.59361 c -1.15155,0.71169 -2.43817,0.91167 -3.42957,0.53305 z m 15.08125,-1.47927 c -0.69123,-0.2305 -1.25677,-0.49514 -1.25677,-0.58809 0,-0.3312 1.54881,-1.07683 2.23677,-1.07683 0.80036,0 2.26114,0.68372 2.26114,1.05833 0,0.25576 -1.38815,1.07169 -1.7728,1.04201 -0.11636,-0.009 -0.77712,-0.20492 -1.46834,-0.43542 z m -8.7974,-0.50121 c -1.43041,-0.34861 -3.0058,-1.05394 -3.87947,-1.73692 -1.20044,-0.93841 -2.64648,-3.10518 -3.22457,-4.83174 -0.56226,-1.67925 -0.56913,-5.16086 -0.0139,-7.04859 0.90701,-3.08384 3.88845,-7.8191 6.35403,-10.0918 3.23356,-2.98058 7.33955,-4.78136 9.83475,-4.31326 l 0.96362,0.18078 -0.6516,0.50073 c -0.35838,0.2754 -0.93093,0.50338 -1.27234,0.50662 -1.27617,0.0121 -3.59815,0.89167 -5.15437,1.95249 -3.94221,2.68728 -7.19656,6.93153 -8.64856,11.27925 -0.79754,2.38808 -0.67278,5.6066 0.29756,7.67623 1.48034,3.15738 4.35589,4.92383 7.64382,4.69557 2.91876,-0.20263 4.80464,-1.44337 6.43208,-4.23177 1.03823,-1.77886 1.03962,-4.86115 0.004,-8.86246 -0.95101,-3.6744 -1.05588,-8.24073 -0.23266,-10.13075 0.78499,-1.80223 1.35097,-2.50925 3.03221,-3.78785 1.72588,-1.31254 2.76221,-1.64852 3.83122,-1.24208 0.88554,0.33668 0.72362,0.68045 -0.42747,0.90756 -0.47597,0.0939 -1.60476,0.67065 -2.50842,1.28164 -1.37293,0.92828 -1.76438,1.37339 -2.38125,2.7077 -0.66742,1.44365 -0.7379,1.87597 -0.73479,4.50723 0.003,2.28651 0.14179,3.39252 0.64881,5.15937 0.51051,1.77901 0.64801,2.88477 0.65802,5.29167 0.0115,2.77982 -0.0501,3.17674 -0.71401,4.59397 -1.3749,2.93512 -4.37581,4.94203 -7.60772,5.0878 -0.94589,0.0427 -1.95792,0.0195 -2.24896,-0.0514 z m -8.5045,-0.6183 c -0.31185,-0.13356 -0.7593,-0.51738 -0.99433,-0.85293 -0.39675,-0.56644 -0.39404,-0.62327 0.0378,-0.79415 1.12745,-0.44611 2.43296,-0.22861 3.30508,0.55063 0.47514,0.42454 0.79503,0.84075 0.71087,0.92491 -0.29022,0.29022 -2.49384,0.41378 -3.05945,0.17154 z m -61.758467,-1.93712 c -1.695312,-1.94777 -1.713114,-1.99522 -1.02384,-2.72892 0.331654,-0.35303 0.731602,-0.64187 0.888773,-0.64187 0.321142,0 4.91366,4.18782 4.91366,4.48066 0,0.10335 -0.803672,0.20785 -1.785937,0.23223 l -1.785938,0.0443 z m 0.280676,-2.57704 c 0,-0.14552 -0.126089,-0.26459 -0.280198,-0.26459 -0.154109,0 -0.206614,0.11907 -0.116677,0.26459 0.08994,0.14552 0.216026,0.26458 0.280199,0.26458 0.06417,0 0.116676,-0.11906 0.116676,-0.26458 z m 5.071181,3.77031 c 0.04851,-0.10914 1.129175,-1.20103 2.401484,-2.42641 l 2.313289,-2.22798 1.787752,1.71802 c 0.983264,0.9449 2.055648,1.94418 2.383068,2.22062 0.32742,0.27644 0.59531,0.59522 0.59531,0.7084 0,0.11318 -2.153047,0.20579 -4.784549,0.20579 -2.631501,0 -4.744861,-0.0893 -4.696354,-0.19844 z m 10.010073,0.0813 c 0,-0.15322 4.52524,-4.51127 4.77739,-4.60089 0.26198,-0.0931 4.7474,4.17995 4.74753,4.52275 4e-5,0.11094 -2.14305,0.1929 -4.76242,0.18214 -2.61938,-0.0108 -4.7625,-0.0576 -4.7625,-0.104 z m 10.31875,-0.10914 c 0,-0.12688 1.0374,-1.2496 2.30533,-2.49493 1.75548,-1.72421 2.40554,-2.21062 2.7255,-2.03939 0.48329,0.25865 4.32006,4.13673 4.44492,4.49278 0.0467,0.13326 -2.00679,0.24455 -4.69636,0.25451 -2.62866,0.01 -4.77939,-0.0861 -4.77939,-0.21297 z m 10.05416,0.0201 c 0,-0.11335 0.77391,-0.97311 1.7198,-1.91059 l 1.71979,-1.70451 v 1.91059 1.91059 h -1.71979 c -0.94589,0 -1.7198,-0.0927 -1.7198,-0.20608 z m 44.900187,-1.07726 c -0.44031,-0.17377 -0.43042,-0.22922 0.13229,-0.74209 0.93716,-0.85415 1.66692,-1.14957 2.83972,-1.14957 1.22528,0 1.32725,0.20783 0.48041,0.97915 -1.1805,1.07522 -2.29426,1.3696 -3.45242,0.91251 z m -10.66218,-0.58965 c -1.42093,-0.41237 -3.186,-2.20824 -3.82354,-3.89028 -0.48671,-1.28407 -0.55272,-1.87586 -0.43661,-3.91445 0.12183,-2.13914 0.25707,-2.64528 1.23723,-4.63021 1.61873,-3.2781 3.36773,-5.47209 6.18595,-7.75981 1.25557,-1.01921 3.82368,-2.41242 4.04285,-2.19325 0.0811,0.0811 0.0167,0.75678 -0.14304,1.50158 -0.53196,2.48041 -0.35693,5.66655 0.55025,10.01657 0.77016,3.69303 0.81998,4.21195 0.55366,5.7667 -0.6741,3.93543 -4.32642,6.21764 -8.16675,5.10315 z m 4.00523,-1.53476 c 2.15114,-0.97712 3.23523,-3.14624 2.91913,-5.84075 -0.0931,-0.7938 -0.47312,-2.75834 -0.84444,-4.36562 -0.49087,-2.12478 -0.67913,-3.69945 -0.68981,-5.76976 l -0.0147,-2.84742 -0.95514,0.72236 c -1.84009,1.39164 -3.0056,2.60779 -4.3851,4.5756 -2.18823,3.12144 -3.05234,5.45976 -3.05234,8.25976 0,2.51041 0.97499,4.27761 2.96664,5.37715 0.89583,0.49456 2.83937,0.44121 4.05576,-0.11132 z m -3.50271,-2.4652 c -0.69868,-0.33756 -1.13934,-1.48733 -1.13596,-2.96393 0.003,-1.10297 1.09176,-3.38896 1.95689,-4.10696 0.23204,-0.19257 0.42188,-0.52406 0.42188,-0.73665 0,-0.84057 0.71011,-0.076 1.65365,1.78057 1.09731,2.15912 1.27886,3.69891 0.59257,5.02605 -0.65382,1.26434 -2.09067,1.67654 -3.48903,1.00092 z m 2.08187,-1.4441 c 0.3055,-0.27647 0.48386,-0.80499 0.48386,-1.43377 0,-1.02977 -0.72367,-2.62165 -1.19313,-2.62459 -0.89459,-0.006 -1.55074,3.30208 -0.8033,4.04952 0.56075,0.56074 0.90053,0.56273 1.51257,0.009 z m -24.91614,4.27434 c 0,-0.21828 0.11906,-0.39688 0.26458,-0.39688 0.14552,0 0.26458,0.1786 0.26458,0.39688 0,0.21828 -0.11906,0.39687 -0.26458,0.39687 -0.14552,0 -0.26458,-0.17859 -0.26458,-0.39687 z m 12.5677,0.14675 c -1.38179,-0.56556 -1.86757,-2.13113 -0.66126,-2.13113 1.26654,0 3.17481,1.30764 3.17481,2.17554 0,0.26766 -1.83009,0.23532 -2.51355,-0.0444 z m 21.56355,-1.74475 c 0,-0.65866 1.66382,-2.21873 2.51354,-2.3568 1.27225,-0.20672 1.53863,0.13966 0.85403,1.11052 -0.6563,0.93073 -1.23552,1.27565 -2.50768,1.4933 -0.65115,0.11141 -0.85989,0.0514 -0.85989,-0.24702 z m -86.018325,-2.4369 c -1.672446,-2.25712 -1.893745,-2.70522 -1.544067,-3.12656 0.173075,-0.20854 0.395598,-0.37917 0.494497,-0.37917 0.0989,0 1.253418,1.07156 2.5656,2.38125 l 2.385784,2.38125 h -1.485295 c -1.464844,0 -1.498117,-0.0173 -2.416519,-1.25677 z m 6.525645,-1.12448 c 1.294898,-1.30969 2.45301,-2.38125 2.573584,-2.38125 0.120574,0 1.277603,1.07156 2.571176,2.38125 l 2.35195,2.38125 h -4.925534 -4.925534 z m 8.055176,2.28052 c 0,-0.17474 4.517367,-4.52481 4.803947,-4.62604 0.15035,-0.0531 1.32806,0.98868 2.61713,2.3151 l 2.34376,2.41167 h -4.88242 c -2.685328,0 -4.882417,-0.0453 -4.882417,-0.10073 z m 12.317697,-2.28052 c 1.2869,-1.30969 2.46493,-2.38112 2.61783,-2.38097 0.28365,2.8e-4 2.11492,1.70675 3.93835,3.66995 l 1.0145,1.09227 h -4.95525 -4.95525 z m 9.62622,0.74661 c 0.89072,-0.89905 1.8839,-1.96953 2.20706,-2.37885 0.32316,-0.40931 0.76616,-0.74413 0.98444,-0.74404 0.57288,2.4e-4 3.70417,3.55825 3.70417,4.20896 0,0.53231 -0.1262,0.54857 -4.25759,0.54857 h -4.25758 z m 17.743587,1.23777 c 0,-0.21828 0.11906,-0.39688 0.26458,-0.39688 0.14552,0 0.26458,0.1786 0.26458,0.39688 0,0.21828 -0.11906,0.39687 -0.26458,0.39687 -0.14552,0 -0.26458,-0.17859 -0.26458,-0.39687 z m 4.89479,0.13229 c 0.0899,-0.14552 0.27555,-0.26458 0.41249,-0.26458 0.13693,0 0.24897,0.11906 0.24897,0.26458 0,0.14552 -0.18563,0.26458 -0.41249,0.26458 -0.22687,0 -0.33891,-0.11906 -0.24897,-0.26458 z m 5.21648,-0.2615 c -1.69226,-0.76807 -2.44875,-2.92243 -1.02099,-2.90762 0.8614,0.009 1.78432,0.85615 2.18426,2.00508 0.58068,1.66814 0.5596,1.68449 -1.16327,0.90254 z m 22.31587,-1.92131 c 0.41522,-1.34602 0.97888,-2.07473 2.01284,-2.60221 l 1.09157,-0.55688 -0.15967,0.98397 c -0.18987,1.17002 -0.79858,1.9186 -1.95974,2.41007 -1.12984,0.47821 -1.19984,0.46152 -0.985,-0.23495 z m -22.19503,-2.0689 c -1.55268,-1.81395 -1.6014,-3.80344 -0.0685,-2.79908 0.36615,0.23991 0.77781,0.64562 0.91479,0.90157 0.29397,0.54928 0.47825,2.6183 0.25325,2.84331 -0.0859,0.0859 -0.58069,-0.33969 -1.09949,-0.9458 z m -12.20519,0.56582 c -0.0837,-0.13546 -0.0312,-0.32108 0.11668,-0.41249 0.14789,-0.0914 0.2689,0.0194 0.2689,0.24631 0,0.46474 -0.15877,0.53317 -0.38558,0.16618 z m 39.94079,-0.28286 c 0.0899,-0.14552 0.21602,-0.26458 0.28019,-0.26458 0.0642,0 0.11668,0.11906 0.11668,0.26458 0,0.14552 -0.12609,0.26458 -0.2802,0.26458 -0.15411,0 -0.20661,-0.11906 -0.11667,-0.26458 z m -5.95313,-2.00126 c 0,-0.78028 0.19228,-1.16031 0.94742,-1.8725 1.09685,-1.03446 1.44148,-0.96931 1.25339,0.23697 -0.15297,0.98105 -0.39554,1.32902 -1.44971,2.07966 l -0.7511,0.53483 z m -89.209488,-0.2477 c -0.230855,-0.50932 -0.370755,-0.92604 -0.310889,-0.92604 0.05987,0 0.525567,0.41672 1.03489,0.92604 0.880045,0.88005 0.895487,0.92604 0.310888,0.92604 -0.446693,0 -0.730097,-0.25359 -1.034889,-0.92604 z m 2.839673,0.097 c 0.427408,-0.45594 1.360603,-1.37867 2.073767,-2.05052 0.713164,-0.67184 1.466181,-1.38774 1.673371,-1.59088 0.323881,-0.31756 0.715742,-0.03 2.794283,2.05052 l 2.417574,2.41987 h -4.86805 -4.86805 z m 11.749916,-1.67712 c 2.199225,-2.20841 2.544337,-2.46145 2.905191,-2.13018 0.225225,0.20676 1.421531,1.33333 2.658458,2.50348 l 2.248963,2.12755 -5.154154,0.003 -5.15415,0.003 z m 3.375324,0.49418 c -0.08792,-0.0879 -0.316122,-0.0973 -0.507118,-0.0209 -0.211067,0.0845 -0.148372,0.14716 0.159852,0.15985 0.278915,0.0115 0.435185,-0.051 0.347266,-0.13896 z m 6.888278,-0.37753 c 1.34804,-1.30517 2.53867,-2.37047 2.64583,-2.36733 0.10716,0.003 1.25429,1.0747 2.54918,2.38125 l 2.35433,2.37554 -5.00017,-0.008 -5.00016,-0.008 z m 8.00005,2.23331 c 0,-0.23158 4.46674,-4.60635 4.70319,-4.60635 0.11145,0 1.26923,1.07156 2.57285,2.38125 l 2.37022,2.38125 h -4.82313 c -2.65272,0 -4.82313,-0.0703 -4.82313,-0.15615 z m 10.05416,-0.095 c 0,-0.13811 0.44649,-0.57862 0.99219,-0.9789 0.54571,-0.40028 1.31933,-1.09095 1.71917,-1.53482 l 0.72699,-0.80703 6.2e-4,1.78593 6.2e-4,1.78594 h -1.71979 c -0.94589,0 -1.7198,-0.113 -1.7198,-0.25112 z m 19.314587,-0.42595 c 0,-0.22687 0.11906,-0.33891 0.26458,-0.24897 0.14552,0.0899 0.26459,0.27556 0.26459,0.41249 0,0.13693 -0.11907,0.24897 -0.26459,0.24897 -0.14552,0 -0.26458,-0.18562 -0.26458,-0.41249 z m -3.96875,-0.11668 c 0,-0.14552 0.11906,-0.26458 0.26458,-0.26458 0.14552,0 0.26459,0.11906 0.26459,0.26458 0,0.14552 -0.11907,0.26459 -0.26459,0.26459 -0.14552,0 -0.26458,-0.11907 -0.26458,-0.26459 z m 10.2526,-1.68459 c -0.57435,-0.64813 -0.7276,-1.0833 -0.7276,-2.06616 0,-0.68481 0.0974,-1.30529 0.21641,-1.37885 0.11902,-0.0736 0.53574,0.16235 0.92604,0.52426 0.60096,0.55724 0.70963,0.87683 0.70963,2.08689 0,0.78589 -0.0893,1.47974 -0.19844,1.5419 -0.10914,0.0622 -0.52585,-0.25646 -0.92604,-0.70804 z m 29.4349,0.36168 c 0,-0.14553 0.17859,-0.26459 0.39688,-0.26459 0.21828,0 0.39687,0.11906 0.39687,0.26459 0,0.14552 -0.17859,0.26458 -0.39687,0.26458 -0.21829,0 -0.39688,-0.11906 -0.39688,-0.26458 z m -9.78958,-1.43799 c 0,-1.09266 0.47086,-1.95786 1.29841,-2.3858 0.43559,-0.22525 0.85742,-0.40955 0.93741,-0.40955 0.3737,0 0.0776,1.08497 -0.5496,2.0136 -1.05763,1.56602 -1.68622,1.85744 -1.68622,0.78175 z m -33.07292,0.13068 c 0,-0.13693 0.11906,-0.32255 0.26458,-0.41249 0.14552,-0.0899 0.26459,0.0221 0.26459,0.24897 0,0.22687 -0.11907,0.41249 -0.26459,0.41249 -0.14552,0 -0.26458,-0.11203 -0.26458,-0.24897 z m 39.42292,-0.0156 c 0,-0.14552 0.11906,-0.26458 0.26458,-0.26458 0.14552,0 0.26458,0.11906 0.26458,0.26458 0,0.14552 -0.11906,0.26458 -0.26458,0.26458 -0.14552,0 -0.26458,-0.11906 -0.26458,-0.26458 z m -35.68086,-1.03374 c -0.26616,-0.16537 -0.27871,-0.27264 -0.0485,-0.41489 0.36306,-0.22439 0.63562,-0.0257 0.50123,0.36528 -0.055,0.16014 -0.24183,0.18061 -0.45269,0.0496 z m 4.46002,-0.14127 c 0,-0.22687 0.11906,-0.41249 0.26459,-0.41249 0.14552,0 0.26458,0.11203 0.26458,0.24897 0,0.13693 -0.11906,0.32255 -0.26458,0.41249 -0.14553,0.0899 -0.26459,-0.0221 -0.26459,-0.24897 z m 6.87107,-1.35164 c -0.63597,-1.02902 -0.76088,-2.63511 -0.24438,-3.14236 0.20722,-0.20351 0.48002,-0.0639 0.96162,0.49228 0.58076,0.67065 0.64998,0.93946 0.50822,1.97368 -0.2274,1.6591 -0.51874,1.8199 -1.22546,0.6764 z m -72.223151,-0.19243 c 0,-0.39443 0.639633,-1.23714 1.852715,-2.44092 l 1.852714,-1.83852 2.248327,2.23665 c 1.23658,1.23015 2.248328,2.32857 2.248328,2.44092 0,0.11236 -1.845469,0.20428 -4.101042,0.20428 -4.090857,0 -4.101042,-10e-4 -4.101042,-0.60241 z m 2.309592,-1.14494 c -0.08792,-0.0879 -0.316122,-0.0973 -0.507118,-0.0209 -0.211067,0.0845 -0.148372,0.14716 0.159852,0.15985 0.278915,0.0115 0.435185,-0.051 0.347266,-0.13896 z m 9.085767,-0.31469 c 1.081355,-1.13413 2.157989,-2.19641 2.392521,-2.36064 0.354387,-0.24815 0.812509,0.0722 2.711979,1.89622 1.257057,1.20715 2.285558,2.26943 2.285558,2.36064 0,0.0912 -2.105135,0.16582 -4.678079,0.16582 h -4.678079 z m 8.616541,1.87741 c -0.190392,-0.19039 4.021654,-4.57787 4.394824,-4.57787 0.29243,0 4.43286,4.22077 4.43286,4.51886 0,0.28225 -8.547311,0.33939 -8.827684,0.059 z m 9.886014,0.0454 c 0,-0.13358 0.88389,-1.02371 3.51222,-3.537 l 1.21593,-1.16271 2.26614,2.24078 c 1.24637,1.23243 2.26613,2.3212 2.26613,2.41948 0,0.0983 -2.08359,0.1787 -4.63021,0.1787 -2.54661,0 -4.63021,-0.0627 -4.63021,-0.13925 z m 10.31875,-0.065 c 0,-0.11235 1.00746,-1.2065 2.23881,-2.43145 l 2.2388,-2.22717 0.60547,0.51287 c 1.6433,1.39195 3.30366,3.4079 3.18392,3.86579 -0.11579,0.44279 -0.47501,0.48424 -4.19681,0.48424 -2.2386,0 -4.07019,-0.0919 -4.07019,-0.20428 z m 49.315797,-1.43664 c 0.18458,-0.92293 1.10348,-2.06324 1.66262,-2.06324 0.21199,0 0.35075,0.30868 0.35075,0.78028 0,0.57391 -0.23403,0.95879 -0.88487,1.45521 -1.15238,0.87896 -1.33323,0.85136 -1.1285,-0.17225 z m 12.24715,0.39457 c -0.0796,-0.12877 -0.0484,-0.38998 0.0694,-0.58047 0.16263,-0.26313 0.26095,-0.27045 0.40928,-0.0305 0.10737,0.17374 0.0762,0.43495 -0.0694,0.58047 -0.14802,0.14803 -0.32833,0.16145 -0.40928,0.0305 z m -39.56284,-0.85709 c 0.0582,-0.17462 0.19215,-0.30857 0.29766,-0.29765 0.31636,0.0327 0.25509,0.39563 -0.086,0.50932 -0.17463,0.0582 -0.26988,-0.037 -0.21167,-0.21167 z m -4.27302,-0.39448 c 0,-0.22687 0.11906,-0.41249 0.26458,-0.41249 0.14552,0 0.26459,0.11203 0.26459,0.24896 0,0.13694 -0.11907,0.32256 -0.26459,0.41249 -0.14552,0.0899 -0.26458,-0.0221 -0.26458,-0.24896 z m 16.15181,-1.31329 c -0.56701,-1.17128 -0.54092,-2.34433 0.0604,-2.71598 0.40065,-0.24762 1.51485,1.14934 1.51485,1.89929 0,0.7239 -0.51583,1.98207 -0.81261,1.98207 -0.10919,0 -0.45238,-0.52442 -0.76266,-1.16538 z m -6.09764,0.37163 c 0,-0.14552 0.12608,-0.26458 0.28019,-0.26458 0.15411,0 0.20662,0.11906 0.11668,0.26458 -0.0899,0.14552 -0.21603,0.26458 -0.2802,0.26458 -0.0642,0 -0.11667,-0.11906 -0.11667,-0.26458 z m 24.14727,-2.3062 c 0.12996,-1.61896 0.22697,-1.85431 1.09068,-2.64583 0.78301,-0.71758 1.15897,-0.8688 2.15993,-0.8688 1.51005,0 2.08131,0.29788 2.61222,1.36211 0.50441,1.01111 0.52328,2.04756 0.0487,2.67278 -0.57854,0.76213 -1.11122,0.54381 -1.45251,-0.59531 -0.27576,-0.9204 -0.41768,-1.05833 -1.08894,-1.05833 -0.56497,0 -0.96988,0.24819 -1.51073,0.92601 -0.40639,0.50931 -0.67935,0.96726 -0.60659,1.01767 0.23919,0.16571 -0.58497,0.96673 -0.99467,0.96673 -0.33226,0 -0.37634,-0.3035 -0.25806,-1.77703 z m 9.71939,0.30621 c 0,-0.22687 0.11907,-0.33891 0.26459,-0.24897 0.14552,0.0899 0.26458,0.27556 0.26458,0.41249 0,0.13693 -0.11906,0.24897 -0.26458,0.24897 -0.14552,0 -0.26459,-0.18562 -0.26459,-0.41249 z m -25.54906,-0.77612 c -0.45747,-0.96404 -0.38848,-1.77692 0.22162,-2.61105 0.33733,-0.46119 0.38828,-0.46421 0.80485,-0.0476 0.6755,0.6755 0.79141,1.553 0.34597,2.6191 -0.50337,1.20473 -0.81528,1.21373 -1.37244,0.0396 z M 69.240313,323.016 c -0.34129,-0.12051 -0.008,-0.59927 1.5341,-2.202 1.08362,-1.1264 2.00991,-2.15844 2.05841,-2.2934 0.052,-0.14468 -1.76705,-0.2454 -4.43177,-0.2454 -2.485979,0 -4.519963,0.0737 -4.519963,0.16387 0,0.0901 0.977131,1.09737 2.171402,2.23832 1.194271,1.14094 2.104271,2.14158 2.022211,2.22364 -0.082,0.0821 -2.246825,0.1166 -4.810605,0.0768 l -4.661418,-0.0724 2.223629,-2.31511 2.22363,-2.3151 h -4.7438 c -2.60909,0 -4.7438,0.0741 -4.7438,0.16462 0,0.0905 0.97362,1.1621 2.163599,2.38125 l 2.163599,2.21663 -4.875578,-0.003 -4.875578,-0.003 2.343445,-2.31217 2.343446,-2.31218 -4.563946,-0.0726 c -2.51017,-0.0399 -4.629393,-0.007 -4.709385,0.0729 -0.07999,0.08 0.83662,1.12467 2.036914,2.32151 l 2.182353,2.17608 -0.815509,0.0834 c -0.99338,0.10162 -4.013653,-1.79217 -4.281049,-2.68434 -0.309622,-1.03304 -0.246503,-2.55838 0.105918,-2.5596 0.181901,-6.2e-4 1.283229,-0.95013 2.447396,-2.11 1.228004,-1.22348 2.338832,-2.1093 2.645833,-2.1099 0.308358,-6e-4 1.504236,0.95052 2.865911,2.27935 l 2.336743,2.28039 1.741083,-1.69071 c 0.957596,-0.92988 2.029149,-2.0171 2.381229,-2.41604 0.829387,-0.93977 1.131525,-0.78749 3.961274,1.99656 l 2.17374,2.13863 2.252963,-2.22074 c 1.23913,-1.2214 2.429163,-2.31934 2.644523,-2.43986 0.28671,-0.16045 1.04707,0.41552 2.8397,2.15107 l 2.44813,2.3702 1.20027,-1.10284 c 0.66015,-0.60657 1.47754,-1.43031 1.81644,-1.83054 0.33889,-0.40022 0.96847,-0.97854 1.39906,-1.28515 l 0.7829,-0.55748 2.43739,2.38878 c 2.01265,1.97251 2.51845,2.34324 2.90251,2.12749 0.48615,-0.27311 0.99009,-0.11423 0.99009,0.31213 0,0.13693 -0.17859,0.24897 -0.39687,0.24897 -0.21828,0 -0.39688,0.0764 -0.39688,0.16979 0,0.17007 0.20297,0.38762 2.91042,3.11961 l 1.45521,1.46839 -4.99334,0.002 c -4.19359,0.002 -4.94524,-0.0556 -4.69306,-0.35946 0.16515,-0.19899 1.13223,-1.19541 2.14907,-2.21426 1.01683,-1.01886 1.84879,-1.92761 1.84879,-2.01945 0,-0.0918 -2.02406,-0.16698 -4.49792,-0.16698 -2.47385,0 -4.49792,0.0346 -4.49792,0.0769 0,0.0423 0.98227,1.08408 2.18282,2.31511 2.16641,2.22141 2.17685,2.23867 1.38906,2.2986 -2.00576,0.15258 -7.87592,0.18823 -8.26682,0.0502 z m 19.89908,0.006 c -0.10978,-0.17762 0.84216,-1.04611 1.13691,-1.03723 0.10748,0.003 0.48401,0.22772 0.83674,0.49886 l 0.64132,0.49299 -1.25959,0.10018 c -0.69278,0.0551 -1.3027,0.0304 -1.35538,-0.0548 z m 14.693777,0.0152 c 0,-0.14552 0.1786,-0.26458 0.39688,-0.26458 0.21828,0 0.39687,0.11906 0.39687,0.26458 0,0.14552 -0.17859,0.26458 -0.39687,0.26458 -0.21828,0 -0.39688,-0.11906 -0.39688,-0.26458 z m 5.55625,-0.24897 c 0,-0.13693 0.11906,-0.32255 0.26459,-0.41249 0.14552,-0.0899 0.26458,0.0221 0.26458,0.24897 0,0.22687 -0.11906,0.41249 -0.26458,0.41249 -0.14553,0 -0.26459,-0.11204 -0.26459,-0.24897 z m 5.55625,-0.54478 c 0,-0.14552 0.11906,-0.26458 0.26459,-0.26458 0.14552,0 0.26458,0.11906 0.26458,0.26458 0,0.14552 -0.11906,0.26458 -0.26458,0.26458 -0.14553,0 -0.26459,-0.11906 -0.26459,-0.26458 z m 7.92473,-1.21255 c -0.32468,-0.84128 -0.19757,-2.91628 0.20321,-3.31705 0.4092,-0.4092 1.08856,0.0231 1.25953,0.80157 0.16697,0.76019 -0.13416,1.81578 -0.78173,2.74031 -0.37736,0.53876 -0.38761,0.53538 -0.68101,-0.22483 z m -16.47959,-0.55134 c -0.30444,-0.30444 -0.19268,-0.61736 0.22049,-0.61736 0.21828,0 0.39687,0.17859 0.39687,0.39687 0,0.41317 -0.31292,0.52493 -0.61736,0.22049 z m 40.56945,-0.35278 c 0,-0.14552 0.17859,-0.26458 0.39687,-0.26458 0.21828,0 0.39688,0.11906 0.39688,0.26458 0,0.14552 -0.1786,0.26459 -0.39688,0.26459 -0.21828,0 -0.39687,-0.11907 -0.39687,-0.26459 z M 111.68967,319.693 c -0.21138,-0.21138 0.0276,-0.62455 0.3612,-0.62455 0.13693,0 0.24897,0.17859 0.24897,0.39687 0,0.40916 -0.3122,0.52565 -0.61017,0.22768 z m 13.57475,-1.11523 c 0,-1.04523 0.14428,-1.47142 0.72038,-2.12795 0.39621,-0.45152 0.79456,-0.82096 0.88522,-0.82096 0.0907,0 0.18469,0.62508 0.20894,1.38907 0.0411,1.29425 -0.0193,1.43949 -0.88522,2.12794 l -0.92932,0.73889 z m -7.9375,0.75526 c 0,-0.14552 0.11907,-0.26458 0.26459,-0.26458 0.14552,0 0.26458,0.11906 0.26458,0.26458 0,0.14552 -0.11906,0.26459 -0.26458,0.26459 -0.14552,0 -0.26459,-0.11907 -0.26459,-0.26459 z m -25.010767,-1.53275 c -4.55598,-2.20122 -6.50439,-7.24351 -4.50092,-11.64795 1.01754,-2.23696 3.35064,-4.38727 5.40971,-4.98586 1.90408,-0.55353 4.81907,-0.35425 6.36662,0.43526 3.588637,1.83078 5.706097,5.93114 5.003907,9.6898 -0.31189,1.66949 -0.84156,2.67937 -2.24936,4.28869 -1.75023,2.00078 -3.382577,2.76327 -6.185857,2.88949 -2.05365,0.0925 -2.38748,0.0343 -3.8441,-0.66943 z m 36.264767,0.16981 c 0.43985,-1.41083 0.64632,-1.76899 1.32963,-2.30648 0.88763,-0.69821 1.338,-0.71523 1.51011,-0.0571 0.26118,0.99873 -0.91984,2.37203 -2.41204,2.80477 -0.55743,0.16166 -0.60148,0.11622 -0.4277,-0.44121 z m 3.56267,-0.0561 c 0,-0.84384 2.02982,-2.54922 3.03421,-2.54922 0.32458,0 0.0939,1.23404 -0.32811,1.75497 -0.84697,1.0456 -2.7061,1.59127 -2.7061,0.79425 z m -23.01875,-0.69714 c 0,-0.14552 0.17859,-0.26458 0.39687,-0.26458 0.21829,0 0.39688,0.11906 0.39688,0.26458 0,0.14553 -0.17859,0.26459 -0.39688,0.26459 -0.21828,0 -0.39687,-0.11906 -0.39687,-0.26459 z m 5.87044,-0.0165 c 0.0637,-0.191 0.27203,-0.39936 0.46302,-0.46302 0.19844,-0.0662 0.29766,0.0331 0.23151,0.23151 -0.0637,0.19099 -0.27202,0.39935 -0.46302,0.46302 -0.19844,0.0661 -0.29765,-0.0331 -0.23151,-0.23151 z m 28.52539,0.0165 c 0,-0.14552 0.11907,-0.26458 0.26459,-0.26458 0.14552,0 0.26458,0.11906 0.26458,0.26458 0,0.14553 -0.11906,0.26459 -0.26458,0.26459 -0.14552,0 -0.26459,-0.11906 -0.26459,-0.26459 z m 3.175,-0.52916 c 0,-0.14552 0.11907,-0.26459 0.26459,-0.26459 0.14552,0 0.26458,0.11907 0.26458,0.26459 0,0.14552 -0.11906,0.26458 -0.26458,0.26458 -0.14552,0 -0.26459,-0.11906 -0.26459,-0.26458 z m -5.82083,-2.22065 c 0,-0.25099 0.792,-0.37749 0.93318,-0.14905 0.086,0.13917 -0.0888,0.25303 -0.3884,0.25303 -0.29963,0 -0.54478,-0.0468 -0.54478,-0.10398 z m -98.425001,-0.68977 c 0,-0.36546 0.176389,-0.52917 0.570174,-0.52917 0.553414,0 0.556097,0.0156 0.09128,0.52917 -0.263389,0.29104 -0.519967,0.52917 -0.570174,0.52917 -0.05021,0 -0.09128,-0.23813 -0.09128,-0.52917 z m 10.040728,0.1161 c -0.441513,-0.53199 -0.206653,-0.69892 0.841025,-0.59778 l 0.878459,0.0848 -0.696466,0.45322 c -0.613445,0.39919 -0.735394,0.40632 -1.023018,0.0598 z m 10.199898,-0.1161 c -0.471906,-0.52145 -0.46213,-0.52917 0.670341,-0.52917 h 1.149231 l -0.567994,0.52917 c -0.312396,0.29104 -0.61405,0.52917 -0.670341,0.52917 -0.05629,0 -0.317848,-0.23813 -0.581237,-0.52917 z m 10.503958,0.21167 c -0.515,-0.515 -0.36913,-0.74084 0.47849,-0.74084 0.72976,0 0.7685,0.044 0.46552,0.52917 -0.38402,0.61493 -0.51205,0.64363 -0.94401,0.21167 z m 9.87043,-0.21005 c -0.40602,-0.44864 -0.41697,-0.53079 -0.0708,-0.53079 0.22527,0 0.48465,0.19564 0.57641,0.43475 0.25001,0.65151 0.0342,0.69251 -0.50562,0.096 z m 30.026317,0.12776 c -0.26584,-0.32032 -0.24964,-0.39396 0.0867,-0.39396 0.49395,0 0.81691,0.43153 0.47918,0.64026 -0.13141,0.0812 -0.38605,-0.0296 -0.56588,-0.2463 z m 4.76492,0.025 c 0,-0.23041 0.18851,-0.41892 0.41892,-0.41892 0.23041,0 0.3718,0.14138 0.3142,0.31419 -0.16354,0.4906 -0.73312,0.57197 -0.73312,0.10473 z m -9.11416,-0.13174 c -0.0852,-0.13784 -0.0421,-0.32032 0.0957,-0.40551 0.13784,-0.0852 0.32031,-0.0421 0.4055,0.0957 0.0852,0.13784 0.0421,0.32032 -0.0957,0.40551 -0.13784,0.0852 -0.32032,0.0421 -0.40551,-0.0957 z m 23.00478,-0.81635 c 0.0899,-0.14552 0.27556,-0.26458 0.41249,-0.26458 0.13694,0 0.24897,0.11906 0.24897,0.26458 0,0.14552 -0.18562,0.26458 -0.41249,0.26458 -0.22687,0 -0.3389,-0.11906 -0.24897,-0.26458 z m 12.96459,0 c -0.0899,-0.14552 0.0291,-0.26458 0.26458,-0.26458 0.23546,0 0.35452,0.11906 0.26459,0.26458 -0.0899,0.14552 -0.209,0.26458 -0.26459,0.26458 -0.0556,0 -0.17464,-0.11906 -0.26458,-0.26458 z m -80.686728,-7.0776 c -0.264112,-1.07677 -2.197679,-2.94087 -3.256511,-3.13951 -0.683817,-0.12828 -1.198855,10e-4 -2.221819,0.55778 -1.108668,0.60342 -1.438068,0.6763 -1.967153,0.43523 -0.698031,-0.31805 -0.774097,-0.60588 -0.363073,-1.37389 0.763144,-1.42594 3.957797,-1.73233 5.577401,-0.53491 0.443495,0.32789 0.868537,0.53398 0.944538,0.45798 0.19964,-0.19964 -0.329661,-0.8306 -2.516687,-3.00004 -2.582178,-2.56141 -5.447577,-4.05212 -7.788867,-4.05212 -1.522725,0 -1.64565,0.0503 -2.615196,1.06947 -1.188598,1.24948 -1.253356,1.69385 -0.366608,2.51566 0.792177,0.73416 1.095285,1.80975 0.770989,2.73588 -0.595943,1.70189 -3.009247,0.26615 -3.009247,-1.79029 0,-0.58643 0.138403,-1.37 0.307562,-1.74127 0.34384,-0.75464 0.116956,-1.20314 -0.364888,-0.72129 -0.536401,0.5364 -2.500757,0.38515 -3.080559,-0.23719 -0.768803,-0.82522 -0.871903,-1.79039 -0.228057,-2.13497 0.821585,-0.4397 2.691289,-0.1128 3.651087,0.63836 l 0.854092,0.66842 0.615649,-0.73165 c 0.913866,-1.08607 1.96711,-1.42508 3.875852,-1.24753 0.904917,0.0842 1.901657,0.23011 2.214978,0.3243 l 0.569675,0.17124 -0.627546,-1.28093 c -0.82067,-1.67512 -0.816564,-2.75514 0.01423,-3.74248 0.777295,-0.92377 1.297674,-1.09612 2.418084,-0.80088 1.491582,0.39305 1.839412,2.78333 0.480886,3.30465 -0.592656,0.22742 -1.733503,-0.35784 -1.894017,-0.97165 -0.181866,-0.69546 -0.604941,-0.39723 -0.604941,0.42643 0,1.51337 1.017481,2.76475 5.198378,6.3934 0.714752,0.62034 1.524095,1.54485 1.79854,2.05447 0.274445,0.50961 0.676868,1.07362 0.894273,1.25335 0.347612,0.28738 0.37619,0.0237 0.236974,-2.18675 -0.116432,-1.84868 -0.46691,-3.56378 -1.324999,-6.48401 -1.49228,-5.0785 -2.501926,-7.02441 -4.600859,-8.86729 -0.915696,-0.804 -0.991625,-0.82542 -1.32231,-0.37319 -0.192957,0.26389 -0.350831,0.56165 -0.350831,0.66171 0,0.10005 -0.359154,0.33068 -0.79812,0.5125 -1.103717,0.45718 -2.576506,0.15943 -3.476514,-0.70283 -0.827695,-0.79299 -1.021521,-1.94481 -0.327267,-1.94481 0.302689,0 0.369112,-0.13339 0.230559,-0.46302 -0.926472,-2.20413 -0.01369,-3.88708 1.770844,-3.26499 0.658257,0.22947 0.775984,0.21273 0.658432,-0.0936 -0.416784,-1.08612 2.253309,-1.39319 3.055167,-0.35135 0.562584,0.73095 0.609516,2.35045 0.09685,3.34185 -0.45315,0.87629 -0.342616,1.07872 1.073138,1.96529 0.600852,0.37626 1.354703,1.10844 1.675225,1.62705 0.320522,0.51862 0.602822,0.9428 0.627333,0.94263 0.02451,-1.7e-4 0.04457,-1.45868 0.04457,-3.24114 0,-3.1033 -0.02834,-3.27062 -0.667742,-3.94249 -1.651344,-1.73519 -2.234082,-4.19954 -1.507705,-6.37596 0.241674,-0.72412 1.050369,-0.99912 1.378206,-0.46867 0.08802,0.14241 0.856558,-0.4529 1.707871,-1.32292 0.851313,-0.87001 1.732016,-1.58185 1.957118,-1.58185 0.295022,0 0.540021,0.5817 0.877623,2.08373 0.408737,1.81852 0.524064,2.04893 0.906127,1.81033 1.196591,-0.74729 1.651445,0.60417 0.910321,2.70474 -0.63931,1.812 -1.341471,2.57947 -2.804601,3.06544 -0.73496,0.24411 -1.380686,0.39945 -1.434948,0.34519 -0.05426,-0.0543 0.236639,-1.04866 0.646447,-2.20977 0.84167,-2.38472 1.249215,-4.74972 0.859945,-4.9903 -0.140719,-0.087 -0.320076,0.16808 -0.39857,0.56678 -0.36671,1.86263 -0.770987,3.23845 -0.951602,3.23845 -0.109145,0 -0.357747,-0.29766 -0.552448,-0.66146 -0.364473,-0.68103 -0.853646,-0.91929 -0.679009,-0.33073 0.696383,2.34693 0.74041,2.84344 0.310341,3.49981 -0.411545,0.6281 -0.405627,0.68913 0.109443,1.12871 0.502782,0.42909 0.530978,0.64991 0.367888,2.8812 -0.09714,1.32907 -0.08257,3.35313 0.03238,4.49792 l 0.209009,2.08142 0.301075,-1.01985 c 0.374563,-1.26879 1.259127,-2.20914 2.572385,-2.7346 1.053259,-0.42143 1.082814,-0.49309 1.017069,-2.46615 -0.02868,-0.86076 0.133219,-1.45089 0.580701,-2.11667 1.054327,-1.56864 3.380797,-1.73198 3.380797,-0.23735 0,0.38754 0.18921,0.4816 0.91397,0.45436 1.1277,-0.0424 1.73186,0.42588 1.73186,1.34234 0,1.2469 -1.79191,2.64885 -2.49149,1.94928 -0.10914,-0.10914 -0.33734,-0.19951 -0.50712,-0.20081 -0.16977,-10e-4 -0.30868,-0.37793 -0.30868,-0.83695 0,-0.45901 -0.0893,-0.92427 -0.19844,-1.03391 -0.10914,-0.10964 -0.19843,-0.0575 -0.19843,0.11589 0,0.17337 -0.29766,0.4284 -0.66146,0.56671 -0.74696,0.284 -0.79332,0.47946 -0.34637,1.46041 0.24554,0.53889 0.43537,0.65074 0.8599,0.50665 1.50231,-0.50988 2.79376,-0.01 2.79376,1.08217 0,1.24502 -2.89667,1.60677 -4.18508,0.52265 -0.432355,-0.3638 -1.027668,-0.66146 -1.322918,-0.66146 -1.255038,0 -3.223252,2.55875 -3.223252,4.19034 0,1.44658 0.830894,4.54091 1.219333,4.54091 0.245011,0 0.368167,-0.31261 0.368167,-0.93454 0,-2.21682 1.294807,-3.56338 3.42644,-3.56338 1.31605,0 1.34314,0.25339 0.21158,1.97832 -0.768271,1.17114 -2.035751,2.29418 -2.923099,2.58998 -0.343551,0.11453 -0.525527,7.86712 -0.184664,7.86712 0.09834,0 0.33579,-0.50601 0.527672,-1.12448 0.573084,-1.84713 2.773201,-6.30189 4.558281,-9.22952 4.04944,-6.64132 5.29525,-11.69997 3.54081,-14.37758 -0.37216,-0.56798 -0.5118,-0.6109 -1.20332,-0.36984 -0.58027,0.20229 -0.96873,0.18186 -1.50419,-0.0791 -1.07504,-0.52389 -1.06355,-0.9691 0.0369,-1.42889 1.88334,-0.78691 3.38454,0.20485 4.0205,2.65611 0.44284,1.70691 0.42562,3.05599 -0.0656,5.13996 -0.21935,0.93054 -0.35034,1.74037 -0.29109,1.79962 0.0592,0.0592 0.52411,-0.64257 1.03302,-1.5596 2.63679,-4.7513 3.23679,-6.70066 2.997,-9.73712 -0.34268,-4.33937 -0.36754,-4.09203 0.42045,-4.18306 0.78304,-0.0905 2.13954,0.50782 3.06028,1.34972 0.76365,0.69826 0.79644,2.10305 0.0661,2.83334 -0.62993,0.62994 -1.04414,0.66352 -1.73536,0.14071 -0.69542,-0.52599 -0.88575,-0.50022 -0.72913,0.0987 0.14787,0.56545 -0.35977,4.17628 -0.65066,4.62814 -0.22291,0.34626 -0.84391,2.05832 -0.84961,2.34233 -0.0101,0.50279 0.61393,0.0174 3.06116,-2.38125 1.44759,-1.41883 3.35748,-3.19708 4.24421,-3.95167 1.38687,-1.18021 1.63297,-1.52666 1.76065,-2.47863 0.23889,-1.78105 2.84034,-4.45257 4.3576,-4.47497 0.66508,-0.01 0.7001,0.11021 0.3526,1.20849 -0.13349,0.4219 -0.31205,1.08534 -0.3968,1.4743 -0.2511,1.1525 -1.44511,2.32103 -3.23645,3.1674 -0.92416,0.43664 -1.68029,0.88912 -1.68029,1.00551 0,0.11639 0.44649,0.28347 0.99219,0.37127 1.90525,0.30657 3.82323,2.47316 3.82323,4.31879 0,1.1677 -0.45031,1.67461 -1.48761,1.67461 -1.09101,0 -1.47573,-0.41385 -1.47573,-1.5875 0,-1.04645 0.37874,-1.5875 1.11125,-1.5875 0.6973,0 0.584,-0.39147 -0.3378,-1.1671 -1.5235,-1.28195 -3.91818,-0.73989 -6.1152,1.38421 -1.04182,1.00725 -1.10001,1.49278 -0.13494,1.12586 0.65264,-0.24813 2.31619,0.39704 2.50242,0.97051 0.19413,0.59779 -1.23264,0.90275 -2.95947,0.63256 -1.84597,-0.28883 -1.96395,-0.23782 -3.98837,1.72451 -1.58146,1.53296 -2.59633,2.74296 -2.4355,2.90378 0.0643,0.0643 0.6315,10e-4 1.26041,-0.13997 0.62891,-0.14131 1.89824,-0.20235 2.82073,-0.13566 1.57514,0.11389 1.71568,0.0766 2.30813,-0.61215 0.88298,-1.02653 2.83785,-1.0195 4.97087,0.0179 1.56998,0.76355 2.1128,1.23307 1.42558,1.23307 -0.75172,0 -0.70027,0.49477 0.10065,0.96789 0.80354,0.47466 1.97594,1.99092 2.55304,3.30182 0.29755,0.67589 0.27529,0.70294 -0.70792,0.86016 -0.55832,0.0893 -1.3286,0.0431 -1.71173,-0.10252 -1.18242,-0.44956 -1.35949,-0.34927 -1.23694,0.70053 l 0.11271,0.96538 -1.13249,-0.1519 c -0.62287,-0.0835 -1.46658,-0.3989 -1.87491,-0.70079 -0.98786,-0.73036 -1.12376,-0.6948 -0.93583,0.24485 0.21974,1.09868 -0.35046,1.04032 -1.38868,-0.14214 -1.04426,-1.18935 -1.61434,-2.55207 -1.61434,-3.85892 0,-0.82118 0.0975,-1.02602 0.48852,-1.02602 0.7661,0 2.11946,0.77136 2.62397,1.49556 0.97969,1.4063 1.63329,2.07839 1.63324,1.67944 -3e-5,-0.21828 -0.17487,-0.62799 -0.38852,-0.91047 -0.78342,-1.03577 -0.43963,-1.20035 1.06676,-0.5107 1.90755,0.8733 2.8031,0.74004 1.32291,-0.19686 -0.58209,-0.36843 -1.62344,-0.89924 -2.31412,-1.17957 -1.35514,-0.55003 -1.61276,-0.90415 -0.66245,-0.91062 0.32743,-0.002 0.77391,-0.11947 0.99219,-0.26053 0.27794,-0.17962 -0.13832,-0.2577 -1.38906,-0.26054 -1.21042,-0.003 -1.78594,-0.10636 -1.78594,-0.32155 0,-0.24694 -0.0705,-0.24694 -0.3175,0 -0.19021,0.19022 -1.10902,0.3175 -2.29185,0.3175 -2.73762,0 -4.64976,0.64511 -6.05575,2.04304 -0.61847,0.61492 -1.12448,1.23872 -1.12448,1.38621 0,0.1717 0.69792,0.20918 1.94014,0.10417 2.18398,-0.18461 2.87719,0.0901 3.68704,1.46105 0.42203,0.71444 0.426,0.8208 0.0448,1.20196 -0.67492,0.67492 -1.41038,0.48868 -2.52801,-0.64018 -1.92963,-1.94901 -3.36215,-1.34214 -5.82802,2.46896 -0.95742,1.47973 -1.89006,2.97623 -2.07254,3.32555 l -0.33179,0.63513 0.79398,-0.56536 c 1.16002,-0.826 2.92217,-1.52598 4.39442,-1.74559 0.70988,-0.1059 1.53441,-0.41959 1.83229,-0.69711 0.68018,-0.63368 1.97504,-0.88512 3.42722,-0.66551 1.49958,0.22679 2.02084,0.55267 1.58352,0.99 -0.51482,0.51482 -0.39023,0.75136 0.39908,0.75766 0.89669,0.007 2.97657,0.92303 2.97657,1.31072 0,0.15624 -0.29766,0.39724 -0.66146,0.53555 -0.835,0.31747 -0.83709,0.61034 -0.008,1.05431 0.35966,0.19249 0.89153,0.8302 1.18193,1.41714 0.74382,1.50341 0.39017,1.86929 -1.62978,1.68613 -1.37576,-0.12475 -1.52901,-0.0881 -1.52901,0.36543 0,0.27886 -0.18319,0.50408 -0.41001,0.50408 -0.63104,0 -2.05152,-0.78641 -2.56067,-1.41763 l -0.45713,-0.56675 -0.006,0.59531 c -0.007,0.73606 -0.14404,0.73564 -1.42866,-0.004 -0.72948,-0.4202 -1.28766,-1.07759 -1.93179,-2.27514 -0.49824,-0.9263 -0.84823,-1.74184 -0.77776,-1.81231 0.26258,-0.26258 2.01419,0.51155 3.09792,1.36913 0.87649,0.6936 1.21655,0.82747 1.55884,0.61371 0.3239,-0.20228 0.76881,-0.12699 1.71011,0.28939 2.2715,1.00479 2.31763,0.4872 0.0618,-0.69394 -1.28302,-0.6718 -1.32397,-0.72318 -0.64273,-0.8063 1.24039,-0.15134 0.80214,-0.44947 -0.78898,-0.53671 -0.83412,-0.0457 -1.66235,-0.20413 -1.8405,-0.35198 -0.17815,-0.14785 -0.43996,-0.1971 -0.5818,-0.10944 -0.14184,0.0877 -0.3336,0.0369 -0.42614,-0.11285 -0.093,-0.15052 0.3424,-0.49898 0.9739,-0.77938 0.99766,-0.44297 1.05432,-0.5095 0.44782,-0.52582 -0.38188,-0.0103 -1.15579,0.14297 -1.71979,0.34055 -0.564,0.19758 -1.58955,0.44278 -2.27901,0.5449 -1.96547,0.29109 -4.85867,2.50678 -5.977043,4.57739 -0.343737,0.63641 -0.196226,1.25833 0.167384,0.70571 0.306298,-0.46553 1.692209,-0.76788 3.135979,-0.68417 2.33152,0.1352 3.64909,2.08893 2.09532,3.10701 -0.58103,0.3807 -0.71584,0.38165 -1.43435,0.0101 -0.43618,-0.22556 -1.06154,-0.79885 -1.38969,-1.27399 -0.32815,-0.47514 -0.62552,-0.90383 -0.66083,-0.95265 -0.0353,-0.0488 -0.47154,0.10455 -0.96941,0.3408 -1.277946,0.60643 -2.111769,1.85033 -2.257588,3.3679 -0.136489,1.42047 -0.680553,1.72741 -0.970023,0.54725 z m -8.622236,-23.99638 c 0.456485,-0.55003 0.240171,-1.47813 -0.450934,-1.93474 -0.573497,-0.37891 -0.595313,-0.36356 -0.595313,0.41893 0,0.79063 -0.0215,0.80477 -0.807256,0.53085 -1.098668,-0.383 -1.28496,-0.0934 -0.275665,0.42852 0.450086,0.23275 0.818338,0.53918 0.818338,0.68096 0,0.3962 0.953874,0.30559 1.31083,-0.12452 z m 23.560007,24.4594 c 0,-0.14552 0.17859,-0.26459 0.39687,-0.26459 0.21828,0 0.39688,0.11907 0.39688,0.26459 0,0.14552 -0.1786,0.26458 -0.39688,0.26458 -0.21828,0 -0.39687,-0.11906 -0.39687,-0.26458 z m 30.172107,-2.38746 c -1.52268,-1.30627 -2.93343,-2.37504 -3.13499,-2.37504 -0.32482,0 -1.9017,-1.46012 -1.9017,-1.76089 0,-0.0646 0.41667,-0.54646 0.92593,-1.07083 0.73913,-0.76106 1.02929,-0.90521 1.43822,-0.71449 0.53789,0.25086 3.41522,2.77353 6.42973,5.63719 l 1.78334,1.6941 2.11972,-1.89254 c 1.16585,-1.0409 3.07015,-2.74107 4.23177,-3.77816 l 2.11205,-1.88561 1.89183,1.52852 c 1.0405,0.84068 2.88402,2.46312 4.09672,3.60541 1.2127,1.14228 2.40717,2.07688 2.65439,2.07688 0.24721,0 1.17872,-0.68461 2.07002,-1.52135 2.90027,-2.72276 5.22277,-4.68857 5.99255,-5.07223 0.70101,-0.34939 0.79813,-0.33074 1.37796,0.26458 0.34309,0.35225 1.49352,1.41437 2.55651,2.36025 1.063,0.94589 2.66023,2.40069 3.54942,3.23289 1.72978,1.61892 2.02873,1.75209 2.54275,1.13274 0.4864,-0.58607 0.79375,-0.48362 0.79375,0.26458 0,0.6612 -0.001,0.66146 -2.63021,0.66146 -1.44662,0 -2.6992,-0.11161 -2.7835,-0.24802 -0.32995,-0.53386 -4.94357,-4.2499 -5.27644,-4.2499 -0.36289,0 -1.64161,1.03173 -4.01706,3.24115 l -1.35121,1.25677 h -2.98392 -2.98392 l -2.48533,-2.24896 c -1.36693,-1.23693 -2.63531,-2.24896 -2.81862,-2.24896 -0.54468,0 -1.70258,0.88092 -4.25412,3.23651 l -1.35629,1.25214 -2.91042,-0.002 -2.91042,-0.002 z m -62.715861,1.85829 c 0,-0.14552 0.119062,-0.26458 0.264583,-0.26458 0.145521,0 0.264584,0.11906 0.264584,0.26458 0,0.14552 -0.119063,0.26458 -0.264584,0.26458 -0.145521,0 -0.264583,-0.11906 -0.264583,-0.26458 z m -4.7625,-1.5875 c 0,-0.14552 0.126089,-0.26458 0.280198,-0.26458 0.154109,0 0.206614,0.11906 0.116677,0.26458 -0.08994,0.14552 -0.216026,0.26458 -0.280199,0.26458 -0.06417,0 -0.116676,-0.11906 -0.116676,-0.26458 z m 41.539584,0 c 0,-0.14552 0.11906,-0.26458 0.26458,-0.26458 0.14553,0 0.26459,0.11906 0.26459,0.26458 0,0.14552 -0.11906,0.26458 -0.26459,0.26458 -0.14552,0 -0.26458,-0.11906 -0.26458,-0.26458 z m -40.206724,-2.6218 c -0.544626,-1.31484 0.621598,-2.66984 2.297886,-2.66984 0.795254,0 0.867171,0.0687 0.867171,0.82867 0,0.45577 -0.247836,1.22967 -0.550746,1.71979 -0.445131,0.72024 -0.718037,0.89113 -1.423109,0.89113 -0.713796,0 -0.930318,-0.13992 -1.191202,-0.76975 z m 105.505711,0.29503 c -0.39301,-0.25918 -1.28597,-1.00385 -1.98438,-1.65481 -0.6984,-0.65096 -1.92466,-1.71643 -2.72502,-2.36772 -0.80037,-0.65129 -1.92682,-1.62411 -2.50323,-2.16182 -0.57992,-0.54097 -1.18372,-0.8971 -1.35182,-0.79731 -0.27689,0.16436 -2.10563,1.76823 -5.41364,4.74795 -2.60289,2.34457 -2.85869,2.47307 -3.46506,1.74065 -0.30408,-0.36729 -4.46928,-3.93806 -7.13143,-6.11367 l -0.73314,-0.59916 -1.80553,1.51646 c -0.99304,0.83405 -1.86506,1.58396 -1.93782,1.66645 -0.72904,0.82656 -4.5883,3.96853 -4.87452,3.96853 -0.20528,0 -1.30585,-0.86611 -2.44571,-1.92468 -4.01609,-3.72968 -5.7236,-5.21907 -5.98344,-5.21907 -0.1444,0 -1.12725,0.77391 -2.18412,1.71979 -1.05686,0.94589 -2.06853,1.71979 -2.24817,1.71979 -0.17963,0 -0.78877,-0.13846 -1.35363,-0.3077 -0.865257,-0.25924 -1.000827,-0.39468 -0.860687,-0.8599 0.0915,-0.3037 0.48031,-0.80591 0.864037,-1.11601 0.38373,-0.3101 1.8276,-1.53049 3.20859,-2.71198 2.36838,-2.02622 3.01407,-2.41698 3.22175,-1.94972 0.0485,0.10914 0.74303,0.74793 1.5434,1.41952 0.80036,0.6716 2.57833,2.24515 3.95103,3.49677 l 2.49582,2.27569 2.26668,-2.18381 c 1.24667,-1.2011 2.92166,-2.66722 3.7222,-3.25805 0.80054,-0.59083 1.61879,-1.27096 1.81833,-1.51139 0.19955,-0.24044 0.48361,-0.43717 0.63124,-0.43717 0.14763,0 1.16559,0.80368 2.26213,1.78594 1.09654,0.98227 2.97898,2.64803 4.1832,3.7017 l 2.18948,1.91576 3.25505,-2.9385 c 1.79028,-1.61617 3.64169,-3.2363 4.11426,-3.60028 0.81673,-0.62907 0.89172,-0.64049 1.51679,-0.23093 0.36166,0.23697 1.76096,1.48441 3.10954,2.77207 3.63375,3.46961 4.93042,4.5286 5.34856,4.36814 0.68519,-0.26293 1.2403,2.66774 0.62236,3.28569 -0.41041,0.41041 -0.47379,0.40288 -1.3231,-0.15722 z m -62.388567,-0.31903 c 0,-0.14552 0.11906,-0.26459 0.26458,-0.26459 0.14552,0 0.26458,0.11907 0.26458,0.26459 0,0.14552 -0.11906,0.26458 -0.26458,0.26458 -0.14552,0 -0.26458,-0.11906 -0.26458,-0.26458 z M 51.47034,300.31 c -0.645808,-0.69134 -1.292193,-2.81583 -0.958313,-3.14971 0.166118,-0.16612 1.704366,0.73946 2.248888,1.32393 0.705258,0.75701 0.703227,1.95629 -0.004,2.33476 -0.456586,0.24436 -0.656931,0.1651 -1.286621,-0.50898 z m 34.900333,-1.61391 c 0,-0.14552 0.11906,-0.26458 0.26458,-0.26458 0.14553,0 0.26459,0.11906 0.26459,0.26458 0,0.14552 -0.11906,0.26458 -0.26459,0.26458 -0.14552,0 -0.26458,-0.11906 -0.26458,-0.26458 z m 1.19063,-0.26458 c -0.0899,-0.14552 -0.0374,-0.26459 0.11667,-0.26459 0.15411,0 0.2802,0.11907 0.2802,0.26459 0,0.14552 -0.0525,0.26458 -0.11668,0.26458 -0.0642,0 -0.19026,-0.11906 -0.28019,-0.26458 z m 4.36562,-1.5875 c 0,-0.14552 0.12609,-0.26459 0.2802,-0.26459 0.15411,0 0.20661,0.11907 0.11668,0.26459 -0.0899,0.14552 -0.21603,0.26458 -0.2802,0.26458 -0.0642,0 -0.11668,-0.11906 -0.11668,-0.26458 z m 20.500037,-3.54561 c -2.25619,-2.28182 -6.13358,-5.52285 -6.46528,-5.40419 -0.13262,0.0474 -1.67566,1.30665 -3.42898,2.79823 -1.75332,1.49159 -3.219777,2.71202 -3.258797,2.71207 -0.039,4e-5 -0.0563,-0.76883 -0.0384,-1.7086 0.0305,-1.5996 0.0894,-1.75585 0.922517,-2.44748 0.48949,-0.40634 1.98252,-1.72106 3.31786,-2.92161 1.33533,-1.20055 2.60558,-2.18281 2.82278,-2.18281 0.35832,0 1.548,1.04285 6.41398,5.62239 0.88908,0.83675 1.75447,1.52136 1.92309,1.52136 0.2465,0 4.30498,-3.36119 4.80785,-3.98182 0.30682,-0.37866 3.70273,-3.16193 3.85792,-3.16193 0.31642,0 3.50152,2.72672 6.95388,5.95312 1.03299,0.96538 1.74445,1.45789 1.81549,1.25677 0.0642,-0.1819 0.26703,-0.33073 0.45063,-0.33073 0.1836,0 0.56063,-0.25581 0.83784,-0.56848 1.37469,-1.55046 6.77616,-6.04485 7.06375,-5.8775 0.69035,0.40171 3.05884,2.42958 4.87203,4.17137 1.95808,1.88096 2.5185,2.84809 2.85124,4.92045 l 0.19117,1.19062 -1.15166,-1.05662 c -0.63342,-0.58115 -1.60433,-1.47412 -2.15758,-1.98438 -0.55326,-0.51026 -1.2081,-1.11374 -1.45521,-1.34106 -1.23563,-1.13669 -2.92599,-2.36479 -3.25467,-2.36461 -0.20329,1.2e-4 -0.84587,0.42635 -1.42795,0.94719 -4.49578,4.02272 -6.5862,5.66719 -7.20404,5.66719 -0.39687,0 -3.15797,-2.26192 -6.28972,-5.15259 -0.87312,-0.80592 -1.79962,-1.53331 -2.05889,-1.61643 -0.43029,-0.13794 -2.79049,1.72903 -5.52388,4.36953 -2.0888,2.01781 -3.13048,2.92446 -3.31902,2.88878 -0.11589,-0.0219 -1.04647,-0.88513 -2.06796,-1.91823 z m -24.862997,1.42462 c 0.0914,-0.14789 0.27703,-0.20039 0.41249,-0.11667 0.36699,0.22681 0.29856,0.38557 -0.16619,0.38557 -0.22686,0 -0.3377,-0.121 -0.2463,-0.2689 z m -39.822457,-0.3827 c -0.929116,-0.31713 -1.774767,-1.47717 -1.454545,-1.9953 0.08957,-0.14493 0.742502,-0.26351 1.450956,-0.26351 1.076416,0 1.378216,0.11456 1.836469,0.69714 0.71237,0.90563 0.693076,1.06812 -0.179234,1.50956 -0.586714,0.2969 -0.906919,0.307 -1.653646,0.0521 z m 3.394005,-1.73933 c -0.691877,-0.40371 -1.574559,-2.01008 -1.600207,-2.91217 -0.01428,-0.50214 0.190952,-1.03257 0.531135,-1.37276 l 0.554403,-0.5544 0.941582,0.71818 c 0.802342,0.61198 0.941582,0.87464 0.941582,1.77619 0,0.84501 -0.598294,2.64757 -0.866691,2.61118 -0.03264,-0.004 -0.258455,-0.12422 -0.501804,-0.26622 z m 62.468819,-5.11102 c -0.51946,-0.45783 -2.29399,-2.05281 -3.94339,-3.5444 -1.6494,-1.49159 -3.18892,-2.71128 -3.42115,-2.71043 -0.23223,8.5e-4 -1.81792,1.19147 -3.52375,2.64583 -1.70583,1.45436 -3.164347,2.64429 -3.241147,2.64429 -0.0768,0 -0.13804,-0.80368 -0.13608,-1.78594 l 0.004,-1.78594 2.973007,-2.53637 c 1.63516,-1.39501 3.22673,-2.69472 3.53683,-2.88825 0.68862,-0.42976 0.86007,-0.30791 4.95607,3.52255 3.1284,2.92558 3.76913,3.44142 4.11253,3.31091 0.12434,-0.0473 1.16307,-0.93295 2.30829,-1.9682 4.20587,-3.80202 5.52988,-4.8646 6.06146,-4.8646 0.29896,0 1.01421,0.48834 1.58945,1.08519 1.49111,1.54715 6.2627,5.68516 6.73442,5.84021 0.30888,0.10153 3.92202,-2.73327 4.7625,-3.73657 0.0728,-0.0869 0.8268,-0.74373 1.67564,-1.45971 1.24048,-1.04634 1.62988,-1.24737 1.98437,-1.02445 0.45168,0.28404 3.46328,4.55227 3.47644,4.92704 0.0114,0.32523 -1.00048,-0.29575 -2.09869,-1.28792 -0.55047,-0.49731 -1.087,-0.9042 -1.19229,-0.9042 -0.10529,0 -2.01219,1.60734 -4.23756,3.57187 -2.22537,1.96453 -4.21286,3.57188 -4.41665,3.57188 -0.20379,0 -0.96136,-0.60465 -1.68349,-1.34366 -0.72214,-0.73901 -2.4782,-2.3626 -3.90237,-3.60798 -2.12777,-1.86065 -2.68089,-2.2225 -3.10267,-2.02978 -0.2823,0.129 -2.15317,1.73006 -4.15748,3.55792 -2.00431,1.82786 -3.76327,3.39308 -3.90879,3.47826 -0.14552,0.0852 -0.6896,-0.21971 -1.20905,-0.67755 z m -0.94262,-7.91003 c -1.01865,-0.9095 -2.55282,-2.24895 -3.40927,-2.97656 -0.85645,-0.7276 -1.79277,-1.59081 -2.08073,-1.91823 -0.68254,-0.77609 -1.16937,-0.74582 -2.19511,0.13652 -3.91955,3.37158 -5.348557,4.55984 -5.483707,4.55984 -0.0867,0 -0.15763,-0.77094 -0.15763,-1.71319 v -1.71318 l 1.559137,-1.26338 c 0.85753,-0.69486 2.40602,-1.96195 3.44109,-2.81575 l 1.88194,-1.55237 1.38756,1.07804 c 1.58513,1.23154 2.23178,1.806 4.86509,4.32195 1.03951,0.99319 2.05155,1.80372 2.24896,1.80119 0.33662,-0.004 2.5332,-1.81774 5.25372,-4.3373 0.65484,-0.60648 1.68396,-1.49473 2.28692,-1.9739 l 1.0963,-0.87122 1.57851,1.27841 c 0.86818,0.70312 2.71036,2.3202 4.09373,3.59351 1.38337,1.27331 2.68001,2.31239 2.88144,2.30907 0.20142,-0.003 1.30371,-0.84582 2.44952,-1.87221 l 2.08331,-1.86618 0.91389,0.88002 0.91389,0.88003 -1.3217,1.19062 c -5.433,4.89421 -4.90108,4.51663 -5.66359,4.02021 -0.37875,-0.24658 -2.15621,-1.74782 -3.94991,-3.33609 -1.7937,-1.58827 -3.45376,-3.05088 -3.68903,-3.25024 -0.37216,-0.31537 -0.59818,-0.22777 -1.73891,0.67392 -0.72113,0.57003 -1.84224,1.55638 -2.49136,2.19191 -1.83257,1.79421 -4.54173,4.19821 -4.73113,4.19821 -0.094,0 -1.00429,-0.74414 -2.02293,-1.65365 z m -37.387267,-4.94467 c -0.74344,-0.74343 -0.72764,-2.35028 0.033,-3.35402 0.31812,-0.41981 0.60173,-0.79885 0.63024,-0.84231 0.0285,-0.0435 0.36136,-10e-4 0.73967,0.0936 1.10225,0.27665 1.3863,1.76542 0.62805,3.29172 -0.677,1.36275 -1.25026,1.59167 -2.03092,0.811 z m 55.790157,-0.70261 c -0.19251,-0.23197 -1.60608,-1.49829 -3.14125,-2.81406 -1.53517,-1.31577 -3.175,-2.73332 -3.64406,-3.15011 -0.46907,-0.4168 -0.93608,-0.75782 -1.03781,-0.75782 -0.20637,0 -2.76378,2.16154 -4.59164,3.88089 -1.87518,1.76385 -3.25392,2.71835 -3.9381,2.72634 -0.4286,0.005 -1.44637,-0.73465 -3.175,-2.3074 -1.39931,-1.27312 -2.6046,-2.39427 -2.67844,-2.49145 -0.40618,-0.53456 -2.24945,-1.80838 -2.61682,-1.80838 -0.23614,0 -0.72578,0.26909 -1.08809,0.59798 -1.66903,1.51504 -5.493197,4.69369 -5.646887,4.69369 -0.0942,0 -0.17124,-0.7639 -0.17124,-1.69756 0,-1.6837 0.009,-1.70469 1.124467,-2.57121 1.16165,-0.90252 3.77849,-3.08694 4.94968,-4.13175 0.36702,-0.32742 0.77533,-0.59531 0.90735,-0.59531 0.2898,0 2.29393,1.6206 3.28453,2.65597 1.13723,1.18864 4.89944,4.22319 5.23587,4.22319 0.16848,0 1.01444,-0.62508 1.8799,-1.38906 0.86546,-0.76398 2.20709,-1.92484 2.9814,-2.57969 0.77432,-0.65484 1.8374,-1.57481 2.36242,-2.04438 0.52502,-0.46957 1.02002,-0.85652 1.1,-0.8599 0.08,-0.003 0.85389,0.58632 1.71979,1.31043 0.86591,0.72411 2.34828,1.95885 3.29417,2.74387 0.94589,0.78502 2.13651,1.80357 2.64583,2.26346 0.68807,0.62127 1.10372,0.80362 1.61743,0.70957 0.51994,-0.0952 0.87772,0.0679 1.44286,0.6578 l 0.75148,0.78438 -1.31057,1.17428 c -1.4464,1.29598 -1.74165,1.39751 -2.25727,0.77623 z m -59.181417,-1.30845 c -0.9862,-0.41467 -1.02721,-0.65113 -0.3653,-2.10625 0.55199,-1.21345 0.89312,-1.53088 2.07038,-1.92655 1.06253,-0.35711 1.46197,0.0447 1.50038,1.50938 0.0292,1.11453 -0.36541,1.71737 -1.60021,2.4445 -0.65298,0.38451 -0.85485,0.39444 -1.60525,0.0789 z m 8.76545,-3.27513 c -1.46108,-0.66348 -1.58052,-0.94685 -0.85078,-2.0185 0.75699,-1.11166 1.813,-1.215 3.16026,-0.30925 1.09986,0.73942 1.26381,1.53962 0.46745,2.28155 -0.7287,0.67888 -1.36052,0.6894 -2.77693,0.0462 z m -5.01517,-1.20818 c -0.36191,-0.55234 -0.39213,-0.8151 -0.15391,-1.33794 0.65213,-1.43127 2.87445,-0.3784 2.6433,1.25231 -0.0699,0.49335 -0.27403,0.6262 -1.0628,0.69178 -0.80694,0.0671 -1.05435,-0.038 -1.42659,-0.60615 z m -5.35856,-0.0297 c -0.82026,-0.57454 -0.6451,-1.41612 0.42439,-2.03896 0.98523,-0.57378 1.90576,-0.45633 2.70753,0.34544 0.65571,0.65572 0.45683,1.17032 -0.6565,1.69863 -1.1126,0.52796 -1.71612,0.52672 -2.47542,-0.005 z m 43.215557,-1.72672 c -1.60006,-1.6357 -4.6078,-4.26253 -6.02003,-5.25764 l -1.25754,-0.88611 -0.72677,0.64072 c -0.39972,0.35239 -1.32334,1.17649 -2.05248,1.83134 -2.45621,2.20592 -3.636887,3.175 -3.868257,3.175 -0.12657,0 -0.23012,-0.82257 -0.23012,-1.82794 v -1.82793 l 1.653637,-1.31405 c 0.90951,-0.72272 2.38273,-1.9058 3.27384,-2.62907 1.32858,-1.07834 1.7643,-1.29387 2.42092,-1.1975 0.78235,0.11483 2.29197,1.32205 6.08417,4.86544 0.91224,0.85239 1.778,1.5498 1.92391,1.5498 0.14591,0 1.04398,-0.61195 1.99571,-1.35989 1.71941,-1.35123 1.73687,-1.35775 2.74404,-1.02536 1.88347,0.6216 1.88179,0.64176 -0.21384,2.55448 -2.26534,2.06763 -4.33568,3.80143 -4.53171,3.79506 -0.0754,-0.002 -0.61339,-0.4913 -1.19548,-1.08635 z m -39.555207,-0.68841 c -1.5118,-0.45826 -2.10261,-0.9195 -2.26129,-1.76538 -0.30226,-1.61115 -0.0882,-2.11911 1.00688,-2.38962 0.90042,-0.22243 1.06916,-0.1742 1.7829,0.5096 1.03236,0.98907 1.14925,1.43987 0.67045,2.58578 -0.44696,1.06973 -0.63049,1.23194 -1.19894,1.05962 z m 5.44286,-0.22406 c -0.49328,-0.49328 -0.5006,-0.58484 -0.13139,-1.64395 0.15641,-0.44868 0.56894,-1.00222 0.91673,-1.23011 0.84139,-0.5513 3.25634,-0.56305 3.46593,-0.0169 0.2953,0.76952 -0.19193,1.7324 -1.27281,2.51538 -1.20365,0.87192 -2.33894,1.01506 -2.97846,0.37554 z m -2.48003,-1.61432 c -0.92018,-0.45349 -1.63991,-1.53609 -1.63991,-2.46671 0,-0.69868 1.13168,-1.85319 1.81654,-1.85319 0.78458,0 1.88763,1.47059 1.88763,2.51661 0,1.14165 -0.42134,2.24758 -0.85335,2.23986 -0.1855,-0.003 -0.73041,-0.19977 -1.21091,-0.43657 z m 11.19238,-0.53728 c -0.29104,-0.0686 -0.94588,-0.452 -1.45521,-0.85198 -0.58316,-0.45797 -1.41054,-0.79303 -2.2346,-0.90494 -0.71971,-0.0977 -1.40249,-0.32561 -1.5173,-0.50639 -0.29129,-0.45868 -0.26781,-2.14456 0.0412,-2.9573 0.31015,-0.81575 0.8132,-0.86616 1.46428,-0.14672 0.40847,0.45135 0.43775,0.67427 0.19318,1.47114 -0.23763,0.77426 -0.21877,0.96584 0.10742,1.09101 0.50493,0.19376 2.34383,-1.56248 3.03196,-2.89567 0.40616,-0.78689 0.66479,-0.99219 1.24993,-0.99219 0.40579,0 0.92822,0.14883 1.16096,0.33073 0.72293,0.56503 0.11286,1.42777 -1.63272,2.30894 -1.55076,0.78282 -2.1215,1.44832 -1.09736,1.27956 0.72237,-0.11903 2.40806,1.49444 2.40806,2.30489 0,0.67323 -0.39557,0.78109 -1.71979,0.46892 z m 25.431867,-3.54526 c -0.68501,-0.60298 -1.20048,-1.14132 -1.14548,-1.19632 0.15873,-0.15873 3.62716,0.75051 3.62716,0.95085 0,0.0992 -0.27815,0.44175 -0.6181,0.76112 l -0.61809,0.58067 z M 99.335263,257.3865 v -1.62212 l 0.992177,0.164 c 0.54571,0.0902 1.31961,0.16531 1.71979,0.16691 0.40019,0.002 0.72716,0.0922 0.72662,0.20135 -10e-4,0.21844 -3.012177,2.71198 -3.274867,2.71198 -0.09,0 -0.16372,-0.72995 -0.16372,-1.62212 z m 7.601247,109.67685 c -0.0879,-0.0879 -0.31612,-0.0973 -0.50711,-0.0209 -0.21107,0.0845 -0.14838,0.14715 0.15985,0.15985 0.27891,0.0115 0.43518,-0.0511 0.34726,-0.13897 z"
       id="path1" /></g></svg>
